<?xml version="1.0" standalone="no"?>
<!DOCTYPE svg PUBLIC "-//W3C//DTD SVG 20010904//EN"
 "http://www.w3.org/TR/2001/REC-SVG-20010904/DTD/svg10.dtd">
<svg version="1.0" xmlns="http://www.w3.org/2000/svg"
 width="225.000000pt" height="225.000000pt" viewBox="0 0 225.000000 225.000000"
 preserveAspectRatio="xMidYMid meet">

<g transform="translate(0.000000,225.000000) scale(0.100000,-0.100000)"
fill="#000000" stroke="none">
<path d="M280 1800 l0 -170 670 0 670 0 0 -670 0 -670 173 0 172 0 -2 828 c0
455 -1 833 -2 840 -1 9 -176 12 -841 12 l-840 0 0 -170z"/>
<path d="M280 1180 l0 -170 360 0 360 0 0 -360 0 -360 175 0 175 0 0 530 0
530 -535 0 -535 0 0 -170z"/>
<path d="M280 515 l0 -225 225 0 225 0 -2 222 -3 223 -222 3 -223 2 0 -225z"/>
</g>
</svg>
